<svg xmlns="http://www.w3.org/2000/svg" viewBox="0 0 512 512"><defs><style>.a{fill:#040000;}</style></defs><title>Hangaram Overflow Logo</title><polygon class="a" points="133.8 84.66 -0.59 220.69 133.8 355.08 145.21 345.31 23.84 219.87 145.21 96.06 133.8 84.66"/><polygon class="a" points="377.6 355.08 512 219.06 377.6 84.66 366.2 94.44 487.56 219.87 366.2 343.68 377.6 355.08"/><polygon class="a" points="169.64 355.08 181.86 364.86 341.5 88.73 328.47 80.59 169.64 355.08"/><path class="a" d="M148.9,414.71v5.06H133.72V409.42a7.76,7.76,0,0,1,.35-2.59,7.3,7.3,0,0,1,1.41-2.12l7.36-8.77a2.59,2.59,0,0,0,.62-.94,5.51,5.51,0,0,0,.08-1.18v-9.59q0-1.59-1.53-1.59h-1.94a1.48,1.48,0,0,0-1.7,1.65v5.18h-5.65v-4.71q0-7.23,6.76-7.23h3q6.76,0,6.76,7.23v9.95a6.15,6.15,0,0,1-.32,2.06,7.59,7.59,0,0,1-1.15,1.94L140,407.77a2.36,2.36,0,0,0-.56,1.27q0,.56,0,1.26v4.41Z"/><path class="a" d="M252.05,413a1.45,1.45,0,0,0,1.64,1.64h2.18a1.43,1.43,0,0,0,1.59-1.64V401.47c0-1.13-.67-1.7-2-1.7h-8.89V377.53h15.95v5.23H251.87v11.89h5q6.24,0,6.24,5.77V412.3q0,7.47-6.77,7.47h-3.18q-6.76,0-6.76-7.18V409.3h5.65Z"/><path class="a" d="M371.2,388.94v-4.41a1.69,1.69,0,0,0-1.94-1.89H367.2q-1.71,0-1.71,1.89v11.18l3.53-.12h1.71q6.47,0,6.47,7.24v9.82q0,7.13-6.47,7.12h-4.41q-6.48,0-6.48-6.53V384.76q0-7.23,6.48-7.23h4.06q6.47,0,6.47,7.23v4.18Zm-5.71,23.83c0,1.26.57,1.88,1.71,1.88h2.65c1.13,0,1.7-.6,1.7-1.82V402.65a1.71,1.71,0,0,0-1.94-1.94h-4.12Z"/></svg>
