<svg xmlns="http://www.w3.org/2000/svg" viewBox="0 0 512 342"><defs><style>.a{fill:#040000;}</style></defs><title>Hangaram Overflow Logo Fitted</title><polygon class="a" points="134.1 5.48 -0.3 141.5 134.1 275.9 145.5 266.13 24.14 140.69 145.5 16.88 134.1 5.48"/><polygon class="a" points="377.9 275.9 512.3 139.88 377.9 5.48 366.5 15.25 487.86 140.69 366.5 264.5 377.9 275.9"/><polygon class="a" points="169.94 275.9 182.16 285.68 341.8 9.55 328.77 1.41 169.94 275.9"/><path class="a" d="M149.2,335.53v5.06H134V330.24a7.51,7.51,0,0,1,.35-2.59,6.8,6.8,0,0,1,1.41-2.12l7.36-8.77a2.53,2.53,0,0,0,.61-.94,5.34,5.34,0,0,0,.09-1.18v-9.59q0-1.59-1.53-1.59h-1.94q-1.71,0-1.71,1.65v5.18H133v-4.71q0-7.23,6.76-7.24h2.94q6.76,0,6.77,7.24v9.95a6.15,6.15,0,0,1-.32,2.06,7.59,7.59,0,0,1-1.15,1.94l-7.77,9.06a2.44,2.44,0,0,0-.56,1.26c0,.38,0,.8,0,1.27v4.41Z"/><path class="a" d="M252.34,333.83a1.45,1.45,0,0,0,1.65,1.64h2.18a1.43,1.43,0,0,0,1.59-1.64V322.29c0-1.13-.67-1.7-2-1.7h-8.89V298.34h15.95v5.24H252.17v11.89h5q6.24,0,6.24,5.76v11.89q0,7.47-6.77,7.47h-3.18q-6.77,0-6.77-7.18v-3.29h5.65Z"/><path class="a" d="M371.5,309.76v-4.41a1.69,1.69,0,0,0-1.94-1.89H367.5q-1.71,0-1.71,1.89v11.18l3.53-.12H371q6.47,0,6.47,7.24v9.82q0,7.13-6.47,7.12h-4.42q-6.47,0-6.47-6.53V305.58q0-7.23,6.47-7.24h4.06q6.48,0,6.48,7.24v4.18Zm-5.71,23.83c0,1.26.57,1.88,1.71,1.88h2.64c1.14,0,1.71-.6,1.71-1.82V323.47a1.72,1.72,0,0,0-1.94-1.94h-4.12Z"/></svg>
